<svg xmlns="http://www.w3.org/2000/svg" version="1.1" xmlns:xlink="http://www.w3.org/1999/xlink" xmlns:svgjs="http://svgjs.dev/svgjs" width="2000" height="600" preserveAspectRatio="none" viewBox="0 0 2000 600"><g mask="url(&quot;#SvgjsMask1024&quot;)" fill="none"><rect width="2000" height="600" x="0" y="0" fill="rgba(0, 69, 80, 1)"></rect><path d="M779.79 624.04C919.36 599.67 883.12 254.46 1208.89 253.85 1534.65 253.24 1848.46 421.06 2067.08 421.85" stroke="rgba(92, 225, 230, 1)" stroke-width="2"></path><path d="M498.98 703.88C739.57 679.61 889.84 166.9 1301.88 164.49 1713.91 162.08 1899.7 331.59 2104.77 332.49" stroke="rgba(92, 225, 230, 1)" stroke-width="2"></path><path d="M395.23 707.75C610.51 664.97 693.42 123.12 1041.54 113.54 1389.65 103.96 1364.69 188.54 1687.84 188.54 2011 188.54 2171.49 113.67 2334.15 113.54" stroke="rgba(92, 225, 230, 1)" stroke-width="2"></path><path d="M397.14 663.36C561.87 661.61 712.91 482.91 1030.88 482.82 1348.84 482.73 1347.74 557.82 1664.61 557.82 1981.48 557.82 2138.81 482.95 2298.35 482.82" stroke="rgba(92, 225, 230, 1)" stroke-width="2"></path><path d="M426.83 653.88C662.09 636.39 828.39 174.53 1239.22 173.83 1650.05 173.13 1840.27 405.51 2051.61 407.83" stroke="rgba(92, 225, 230, 1)" stroke-width="2"></path></g><defs><mask id="SvgjsMask1024"><rect width="2000" height="600" fill="#ffffff"></rect></mask></defs></svg>